<?xml version="1.0" encoding="utf-8"?>
<!-- Generator: Adobe Illustrator 14.0.0, SVG Export Plug-In  -->
<!DOCTYPE svg PUBLIC "-//W3C//DTD SVG 1.0//EN" "http://www.w3.org/TR/2001/REC-SVG-20010904/DTD/svg10.dtd" [
	<!ENTITY ns_flows "http://ns.adobe.com/Flows/1.0/">
]>
<svg version="1.0"
	 xmlns="http://www.w3.org/2000/svg" xmlns:xlink="http://www.w3.org/1999/xlink" xmlns:a="http://ns.adobe.com/AdobeSVGViewerExtensions/3.0/"
	 x="0px" y="0px" width="250px" height="250px" viewBox="0 -94.021 250 250" enable-background="new 0 -94.021 250 250"
	 xml:space="preserve">
<defs>
</defs>
<circle fill="#1A171B" cx="215.424" cy="34.574" r="34.576"/>
<circle fill="#1A171B" cx="34.575" cy="34.574" r="34.575"/>
<g>
	<path fill="#1A171B" d="M125,8c14.653,0,26.574,11.921,26.574,26.575c0,14.653-11.921,26.575-26.574,26.575
		c-14.654,0-26.576-11.922-26.576-26.575C98.425,19.921,110.347,8,125,8 M125,0c-19.096,0-34.576,15.48-34.576,34.575
		c0,19.095,15.48,34.575,34.576,34.575c19.093,0,34.574-15.48,34.574-34.575C159.574,15.48,144.094,0,125,0L125,0z"/>
</g>
</svg>
