<?xml version="1.0" encoding="utf-8"?>
<!-- Generator: Adobe Illustrator 14.0.0, SVG Export Plug-In  -->
<!DOCTYPE svg PUBLIC "-//W3C//DTD SVG 1.0//EN" "http://www.w3.org/TR/2001/REC-SVG-20010904/DTD/svg10.dtd" [
	<!ENTITY ns_flows "http://ns.adobe.com/Flows/1.0/">
]>
<svg version="1.0"
	 xmlns="http://www.w3.org/2000/svg" xmlns:xlink="http://www.w3.org/1999/xlink" xmlns:a="http://ns.adobe.com/AdobeSVGViewerExtensions/3.0/"
	 x="0px" y="0px" width="250px" height="250px" viewBox="-10.251 0 250 250" enable-background="new -10.251 0 250 250"
	 xml:space="preserve">
<defs>
</defs>
<path fill="#FFFFFF" d="M114.749,0C51.477,0,0,51.474,0,114.746C0,178.019,51.477,229.5,114.749,229.5
	c63.27,0,114.749-51.481,114.749-114.754C229.498,51.474,178.019,0,114.749,0 M11.581,114.746c0-14.957,3.209-29.156,8.934-41.986
	l49.213,134.836C35.309,190.875,11.581,155.582,11.581,114.746 M114.749,217.922c-10.127,0-19.901-1.485-29.146-4.205l30.958-89.946
	l31.71,86.88c0.208,0.51,0.464,0.98,0.738,1.422C138.285,215.849,126.764,217.922,114.749,217.922 M128.968,66.375
	c6.21-0.327,11.807-0.979,11.807-0.979c5.56-0.658,4.903-8.828-0.658-8.503c0,0-16.711,1.312-27.499,1.312
	c-10.137,0-27.17-1.312-27.17-1.312c-5.564-0.325-6.216,8.173-0.655,8.503c0,0,5.262,0.653,10.822,0.979l16.072,44.041
	l-22.58,67.711L51.538,66.375c6.216-0.327,11.806-0.979,11.806-0.979c5.556-0.658,4.9-8.828-0.659-8.503
	c0,0-16.707,1.312-27.497,1.312c-1.936,0-4.217-0.048-6.639-0.125c18.447-28.007,50.155-46.5,86.2-46.5
	c26.857,0,51.313,10.269,69.667,27.086c-0.445-0.026-0.878-0.082-1.337-0.082c-10.134,0-17.325,8.829-17.325,18.31
	c0,8.503,4.906,15.696,10.134,24.197c3.924,6.872,8.506,15.699,8.506,28.454c0,8.829-3.395,19.075-7.85,33.35l-10.293,34.382
	L128.968,66.375z M205.279,65.252c8.052,14.693,12.637,31.556,12.637,49.494c0,38.063-20.628,71.291-51.3,89.174l31.511-91.107
	c5.886-14.719,7.846-26.488,7.846-36.952C205.973,72.062,205.723,68.538,205.279,65.252"/>
</svg>
