<?xml version="1.0" encoding="utf-8"?>
<!-- Generator: Adobe Illustrator 14.0.0, SVG Export Plug-In  -->
<!DOCTYPE svg PUBLIC "-//W3C//DTD SVG 1.0//EN" "http://www.w3.org/TR/2001/REC-SVG-20010904/DTD/svg10.dtd" [
	<!ENTITY ns_flows "http://ns.adobe.com/Flows/1.0/">
]>
<svg version="1.0"
	 xmlns="http://www.w3.org/2000/svg" xmlns:xlink="http://www.w3.org/1999/xlink" xmlns:a="http://ns.adobe.com/AdobeSVGViewerExtensions/3.0/"
	 x="0px" y="0px" width="250px" height="250px" viewBox="0 -13.683 250 250" enable-background="new 0 -13.683 250 250"
	 xml:space="preserve">
<defs>
</defs>
<path fill="#FFFFFF" d="M250,111.343c0-16.561-20.739-32.256-52.537-41.989c7.337-32.409,4.076-58.193-10.294-66.449
	c-3.298-1.928-7.153-2.845-11.363-2.853V0c-14.014,0-32.358,9.988-50.907,27.313C106.35,10.09,88.005,0.204,73.992,0.204v0.051
	c-4.281,0-8.153,0.917-11.517,2.854c-14.319,8.255-17.529,33.989-10.14,66.297C20.638,79.188,0,94.833,0,111.343
	c0,16.563,20.74,32.256,52.538,41.989c-7.338,32.409-4.077,58.194,10.293,66.449c3.313,1.938,7.186,2.854,11.465,2.854
	c14.014,0,32.358-9.987,50.907-27.313c18.549,17.224,36.894,27.109,50.907,27.109c4.28,0,8.153-0.918,11.517-2.854
	c14.319-8.255,17.529-33.988,10.141-66.296C229.362,143.549,250,127.853,250,111.343z M175.755,11.365v0.05
	c2.344,0,4.229,0.458,5.809,1.324c6.931,3.975,9.938,19.109,7.593,38.575c-0.561,4.79-1.478,9.835-2.599,14.982
	c-9.987-2.446-20.894-4.332-32.357-5.555c-6.88-9.428-14.015-17.988-21.199-25.479C149.587,19.847,165.156,11.392,175.755,11.365z
	 M79.852,137.434c2.395,4.076,4.841,8.051,7.338,11.924c-7.236-1.069-14.217-2.395-20.893-4.025
	c1.886-6.573,4.23-13.352,6.879-20.129C75.265,129.28,77.457,133.356,79.852,137.434z M66.144,77.354
	c6.675-1.58,13.708-2.956,20.995-4.025c-2.497,3.923-4.994,7.949-7.338,12.076c-2.344,4.077-4.535,8.153-6.624,12.23
	C70.425,90.807,68.081,83.979,66.144,77.354z M79.138,111.496c3.159-6.828,6.727-13.657,10.548-20.332
	c3.975-6.88,8.052-13.402,12.281-19.466c7.593-0.663,15.288-1.02,23.033-1.02c7.695,0,15.39,0.356,22.932,0.969
	c4.229,6.063,8.356,12.535,12.331,19.363c3.873,6.676,7.39,13.453,10.601,20.282c-3.211,6.827-6.728,13.655-10.549,20.331
	c-3.975,6.88-8.052,13.402-12.281,19.466c-7.592,0.663-15.287,1.02-23.033,1.02c-7.694,0-15.389-0.356-22.931-0.968
	c-4.229-6.064-8.357-12.536-12.332-19.364C85.865,125.102,82.349,118.324,79.138,111.496z M170.148,137.281
	c2.345-4.077,4.536-8.205,6.625-12.281c2.752,6.828,5.097,13.657,7.033,20.281c-6.676,1.631-13.708,3.007-20.995,4.076
	C165.309,145.435,167.806,141.409,170.148,137.281z M170.099,85.253c-2.345-4.077-4.842-8.052-7.339-11.924
	c7.236,1.069,14.218,2.395,20.893,4.025c-1.885,6.573-4.229,13.351-6.879,20.128C174.685,93.406,172.493,89.329,170.099,85.253z
	 M139.014,59.621c-4.586-0.204-9.274-0.356-14.014-0.356c-4.79,0-9.529,0.102-14.166,0.356c4.586-5.963,9.325-11.415,14.014-16.307
	C129.587,48.206,134.326,53.658,139.014,59.621z M68.131,12.943c1.529-0.917,3.516-1.325,5.86-1.325v-0.051
	c10.548,0,26.192,8.408,42.805,23.747c-7.134,7.49-14.269,16-21.046,25.428c-11.517,1.223-22.422,3.108-32.409,5.605
	c-1.172-5.097-2.039-10.039-2.65-14.778C58.296,32.104,61.252,16.969,68.131,12.943z M55.29,142.325
	c-5.044-1.579-9.834-3.313-14.268-5.197c-18.039-7.694-29.708-17.785-29.708-25.785s11.669-18.141,29.708-25.784
	c4.382-1.886,9.173-3.567,14.116-5.146c2.905,9.987,6.727,20.383,11.465,31.033C61.914,122.045,58.144,132.389,55.29,142.325z
	 M74.195,211.323c-2.293-0.052-4.229-0.511-5.758-1.376c-6.931-3.975-9.937-19.109-7.593-38.576
	c0.561-4.789,1.478-9.835,2.599-14.981c9.988,2.446,20.893,4.332,32.358,5.555c6.879,9.427,14.014,17.988,21.199,25.479
	C100.388,202.863,84.794,211.323,74.195,211.323z M125.103,179.372c-4.739-4.893-9.479-10.345-14.167-16.307
	c4.586,0.204,9.274,0.357,14.013,0.357c4.79,0,9.529-0.103,14.166-0.357C134.529,169.027,129.79,174.479,125.103,179.372z
	 M181.87,209.743c-1.529,0.916-3.517,1.324-5.86,1.324c-10.548,0-26.193-8.407-42.805-23.745
	c7.134-7.491,14.268-16.001,21.045-25.429c11.517-1.223,22.422-3.108,32.409-5.604c1.172,5.146,2.09,10.088,2.65,14.827
	C191.704,190.583,188.749,205.718,181.87,209.743z M208.928,137.128c-4.382,1.885-9.172,3.567-14.114,5.146
	c-2.905-9.987-6.728-20.383-11.467-31.033c4.688-10.6,8.46-20.943,11.313-30.881c5.045,1.58,9.835,3.313,14.318,5.198
	c18.04,7.694,29.709,17.784,29.709,25.784C238.637,119.343,226.968,129.483,208.928,137.128z"/>
<circle fill="#FFFFFF" cx="124.949" cy="111.343" r="23.288"/>
</svg>
