<?xml version="1.0" encoding="utf-8"?>
<!-- Generator: Adobe Illustrator 14.0.0, SVG Export Plug-In  -->
<!DOCTYPE svg PUBLIC "-//W3C//DTD SVG 1.0//EN" "http://www.w3.org/TR/2001/REC-SVG-20010904/DTD/svg10.dtd" [
	<!ENTITY ns_flows "http://ns.adobe.com/Flows/1.0/">
]>
<svg version="1.0"
	 xmlns="http://www.w3.org/2000/svg" xmlns:xlink="http://www.w3.org/1999/xlink" xmlns:a="http://ns.adobe.com/AdobeSVGViewerExtensions/3.0/"
	 x="0px" y="0px" width="250px" height="250px" viewBox="0 -59.245 250 250" enable-background="new 0 -59.245 250 250"
	 xml:space="preserve">
<defs>
</defs>
<path d="M74.377,47.08h-9.835l-5.36,27.579h8.731c5.788,0,10.099-1.09,12.931-3.271c2.833-2.182,4.743-5.821,5.736-10.922
	c0.95-4.897,0.517-8.353-1.298-10.366C83.465,48.086,79.831,47.08,74.377,47.08z"/>
<path d="M186.418,47.08h-9.835l-5.36,27.579h8.731c5.787,0,10.099-1.09,12.931-3.271c2.834-2.182,4.744-5.821,5.736-10.922
	c0.95-4.897,0.518-8.353-1.298-10.366C195.506,48.086,191.871,47.08,186.418,47.08z"/>
<path d="M125,0C55.966,0,0,29.44,0,65.755c0,36.315,55.966,65.755,125,65.755c69.035,0,125-29.439,125-65.755
	C250,29.44,194.034,0,125,0z M92.404,77.614c-2.867,2.683-6.051,4.595-9.555,5.732c-3.504,1.142-7.967,1.71-13.392,1.71H57.162
	l-3.405,17.52H39.402l12.807-65.895h27.604c8.304,0,14.362,2.179,18.169,6.538c3.807,4.359,4.954,10.443,3.435,18.254
	c-0.625,3.218-1.683,6.16-3.171,8.825C96.755,72.965,94.809,75.403,92.404,77.614z M135.662,85.057l5.665-29.156
	c0.646-3.316,0.408-5.579-0.711-6.785c-1.12-1.206-3.503-1.81-7.146-1.81h-11.382l-7.336,37.751H100.51l12.808-65.895h14.242
	l-3.405,17.52h12.688c7.982,0,13.489,1.393,16.52,4.176c3.03,2.785,3.938,7.298,2.727,13.535l-5.958,30.664H135.662z
	 M213.458,61.473c-0.625,3.218-1.683,6.16-3.172,8.825c-1.49,2.667-3.437,5.105-5.842,7.316c-2.867,2.683-6.051,4.595-9.555,5.732
	c-3.504,1.142-7.967,1.71-13.393,1.71h-12.295l-3.404,17.52h-14.354l12.807-65.895h27.604c8.304,0,14.362,2.179,18.17,6.538
	S214.977,53.662,213.458,61.473z"/>
</svg>
