<?xml version="1.0" encoding="utf-8"?>
<!-- Generator: Adobe Illustrator 14.0.0, SVG Export Plug-In  -->
<!DOCTYPE svg PUBLIC "-//W3C//DTD SVG 1.0//EN" "http://www.w3.org/TR/2001/REC-SVG-20010904/DTD/svg10.dtd" [
	<!ENTITY ns_flows "http://ns.adobe.com/Flows/1.0/">
]>
<svg version="1.0"
	 xmlns="http://www.w3.org/2000/svg" xmlns:xlink="http://www.w3.org/1999/xlink" xmlns:a="http://ns.adobe.com/AdobeSVGViewerExtensions/3.0/"
	 x="0px" y="0px" width="250px" height="250px" viewBox="0 -3.083 250 250" enable-background="new 0 -3.083 250 250"
	 xml:space="preserve">
<defs>
</defs>
<path fill="#FFFFFF" d="M125,0C55.938,0,0,55.938,0,125c0,55.313,35.781,102.032,85.469,118.595c6.25,1.094,8.594-2.656,8.594-5.938
	c0-2.969-0.156-12.813-0.156-23.281c-31.406,5.781-39.531-7.657-42.031-14.688c-1.406-3.594-7.5-14.688-12.813-17.657
	c-4.375-2.343-10.625-8.124-0.156-8.281c9.844-0.155,16.875,9.063,19.219,12.813c11.25,18.905,29.219,13.594,36.406,10.313
	c1.094-8.125,4.375-13.595,7.969-16.719c-27.813-3.125-56.875-13.906-56.875-61.719c0-13.594,4.844-24.844,12.813-33.594
	c-1.25-3.125-5.625-15.938,1.25-33.125c0,0,10.469-3.281,34.375,12.813c10-2.813,20.625-4.219,31.25-4.219s21.25,1.406,31.25,4.219
	c23.906-16.25,34.375-12.813,34.375-12.813c6.875,17.188,2.5,30,1.25,33.125c7.969,8.75,12.813,19.844,12.813,33.594
	c0,47.968-29.219,58.594-57.031,61.719c4.531,3.906,8.438,11.405,8.438,23.124c0,16.72-0.156,30.157-0.156,34.376
	c0,3.281,2.344,7.188,8.594,5.938C214.219,227.032,250,180.157,250,125C250,55.938,194.063,0,125,0z"/>
</svg>
