<?xml version="1.0" encoding="utf-8"?>
<!-- Generator: Adobe Illustrator 14.0.0, SVG Export Plug-In  -->
<!DOCTYPE svg PUBLIC "-//W3C//DTD SVG 1.0//EN" "http://www.w3.org/TR/2001/REC-SVG-20010904/DTD/svg10.dtd" [
	<!ENTITY ns_flows "http://ns.adobe.com/Flows/1.0/">
]>
<svg version="1.0"
	 xmlns="http://www.w3.org/2000/svg" xmlns:xlink="http://www.w3.org/1999/xlink" xmlns:a="http://ns.adobe.com/AdobeSVGViewerExtensions/3.0/"
	 x="0px" y="0px" width="250px" height="250px" viewBox="0 0 250 250" enable-background="new 0 0 250 250" xml:space="preserve">
<defs>
</defs>
<path fill="#FFFFFF" d="M125,0C55.964,0,0,55.964,0,125c0,69.035,55.964,125,125,125c69.035,0,125-55.965,125-125
	C250,55.964,194.035,0,125,0z M192.131,72.234c-5.773,0.208-9.766-3.242-9.946-8.492c-0.062-1.927,0.435-3.604,1.75-5.573
	c1.292-2.526,1.565-2.808,1.531-3.911c-0.116-3.304-5.112-3.435-6.478-3.365c-18.734,0.615-23.673,25.907-27.677,46.469
	l-1.962,10.843c10.789,1.584,18.45-0.365,22.724-3.131c6.016-3.896-1.681-7.908-0.716-12.354c0.988-4.531,5.104-6.712,8.381-6.805
	c4.577-0.107,7.847,4.639,7.742,9.462c-0.157,7.97-10.738,18.927-31.892,18.48c-2.577-0.062-4.946-0.238-7.162-0.504l-3.988,22.027
	c-3.573,16.685-8.323,39.48-25.308,59.365c-14.593,17.347-29.399,20.046-36.03,20.273c-12.404,0.419-20.632-6.196-20.928-15.023
	c-0.284-8.546,7.277-13.215,12.238-13.384c6.623-0.22,11.205,4.576,11.381,10.107c0.166,4.681-2.276,6.142-3.892,7.022
	c-1.081,0.869-2.708,1.754-2.643,3.685c0.038,0.824,0.927,2.716,3.677,2.631c5.246-0.181,8.727-2.772,11.161-4.504
	c12.085-10.073,16.735-27.619,22.827-59.573l1.269-7.745c2.082-10.389,4.382-21.974,7.9-33.516
	c-8.522-6.412-13.63-14.362-25.088-17.474c-7.85-2.135-12.643-0.319-16.008,3.935c-3.988,5.043-2.665,11.604,1.188,15.454
	l6.361,7.035c7.808,9.019,12.069,16.03,10.466,25.469c-2.546,15.069-20.496,26.623-41.716,20.104
	c-18.111-5.584-21.492-18.407-19.319-25.473c1.916-6.22,6.858-7.393,11.688-5.912c5.178,1.597,7.2,7.886,5.72,12.72
	c-0.166,0.508-0.427,1.373-0.974,2.526c-0.596,1.343-1.707,2.505-2.188,4.058c-1.164,3.797,4.035,6.493,7.654,7.597
	c8.104,2.5,16.004-1.743,18.016-8.296c1.861-6.027-1.946-10.231-3.527-11.843l-7.669-8.219c-3.508-3.912-11.23-14.808-7.466-27.051
	c1.454-4.711,4.512-9.723,8.95-13.038c9.369-6.98,19.558-8.131,29.258-5.346c12.55,3.619,18.585,11.919,26.407,18.33
	c4.373-12.834,10.442-25.407,19.565-36.008c8.239-9.668,19.308-16.657,31.989-17.1h-0.001c12.674-0.415,22.246,5.322,22.559,14.404
	C202.085,64.458,199.861,71.984,192.131,72.234z"/>
</svg>
