<?xml version="1.0" encoding="utf-8"?>
<!-- Generator: Adobe Illustrator 14.0.0, SVG Export Plug-In  -->
<!DOCTYPE svg PUBLIC "-//W3C//DTD SVG 1.0//EN" "http://www.w3.org/TR/2001/REC-SVG-20010904/DTD/svg10.dtd" [
	<!ENTITY ns_flows "http://ns.adobe.com/Flows/1.0/">
]>
<svg version="1.0"
	 xmlns="http://www.w3.org/2000/svg" xmlns:xlink="http://www.w3.org/1999/xlink" xmlns:a="http://ns.adobe.com/AdobeSVGViewerExtensions/3.0/"
	 x="0px" y="0px" width="250px" height="250px" viewBox="0 -31 250 250" enable-background="new 0 -31 250 250"
	 xml:space="preserve">
<defs>
</defs>
<path fill="#FFFFFF" d="M4.443,30.446L125,90.242l120.557-59.796c1.431-0.71,2.948-1.034,4.443-1.033V18c0-9.941-8.059-18-18-18H18
	C8.059,0,0,8.059,0,18v11.413C1.495,29.412,3.013,29.736,4.443,30.446z"/>
<path fill="#FFFFFF" d="M129.443,110.363c-1.399,0.694-2.922,1.041-4.443,1.041c-1.522,0-3.043-0.347-4.443-1.041L0,50.567V170
	c0,9.941,8.059,18,18,18h214c9.941,0,18-8.059,18-18V50.567L129.443,110.363z"/>
</svg>
