<?xml version="1.0" encoding="utf-8"?>
<!-- Generator: Adobe Illustrator 14.0.0, SVG Export Plug-In  -->
<!DOCTYPE svg PUBLIC "-//W3C//DTD SVG 1.0//EN" "http://www.w3.org/TR/2001/REC-SVG-20010904/DTD/svg10.dtd" [
	<!ENTITY ns_flows "http://ns.adobe.com/Flows/1.0/">
]>
<svg version="1.0"
	 xmlns="http://www.w3.org/2000/svg" xmlns:xlink="http://www.w3.org/1999/xlink" xmlns:a="http://ns.adobe.com/AdobeSVGViewerExtensions/3.0/"
	 x="0px" y="0px" width="250px" height="250px" viewBox="0 0 250 250" enable-background="new 0 0 250 250" xml:space="preserve">
<defs>
</defs>
<path fill="#FFFFFF" d="M0,0v250h250V0H0z M136.146,194.988c0,24.325-14.262,35.396-35.079,35.396
	c-18.81,0-29.702-9.734-35.242-21.458l19.123-11.577c3.69,6.547,7.048,12.083,15.119,12.083c7.718,0,12.587-3.021,12.587-14.762
	v-79.882h23.492V194.988z M191.654,230.429c-21.816,0-35.912-10.397-42.809-24.024l19.091-11.091
	c5.036,8.222,11.587,14.267,23.175,14.267c9.734,0,15.952-4.865,15.952-11.588c0-8.056-6.389-10.908-17.103-15.596l-5.873-2.52
	c-16.953-7.223-28.215-16.27-28.215-35.396c0-17.619,13.425-31.032,34.404-31.032c14.938,0,25.675,5.198,33.413,18.81
	l-18.294,11.746c-4.027-7.223-8.373-10.067-15.119-10.067c-6.881,0-11.242,4.365-11.242,10.067c0,7.048,4.365,9.9,14.445,14.266
	l5.873,2.516c19.96,8.561,31.23,17.286,31.23,36.905C230.584,218.842,213.969,230.429,191.654,230.429z"/>
</svg>
