<?xml version="1.0" encoding="utf-8"?>
<!-- Generator: Adobe Illustrator 14.0.0, SVG Export Plug-In  -->
<!DOCTYPE svg PUBLIC "-//W3C//DTD SVG 1.0//EN" "http://www.w3.org/TR/2001/REC-SVG-20010904/DTD/svg10.dtd" [
	<!ENTITY ns_flows "http://ns.adobe.com/Flows/1.0/">
]>
<svg version="1.0"
	 xmlns="http://www.w3.org/2000/svg" xmlns:xlink="http://www.w3.org/1999/xlink" xmlns:a="http://ns.adobe.com/AdobeSVGViewerExtensions/3.0/"
	 x="0px" y="0px" width="250px" height="250px" viewBox="-15.781 -0.248 250 250" enable-background="new -15.781 -0.248 250 250"
	 xml:space="preserve">
<defs>
</defs>
<path fill="#FFFFFF" d="M0,0l20.061,225.009L110.084,250l90.271-25.025L220.438,0H0z M174.271,101.85l-0.674,7.41l-6.484,72.654
	l-0.416,4.662l-56.479,15.652v0.005l-0.127,0.035l-56.529-15.692l-3.866-43.331h12.768h14.934l1.965,22.01l30.734,8.299l0.025-0.007
	v-0.003l30.779-8.307l3.203-35.791h-33.887h-0.096h-61.66L45.99,101.85h64.133h0.096h36.28l2.511-28.258h-38.791h-0.096H43.528
	L41.02,45.995h69.104h0.096h69.034L174.271,101.85z"/>
</svg>
