<?xml version="1.0" encoding="utf-8"?>
<!-- Generator: Adobe Illustrator 14.0.0, SVG Export Plug-In  -->
<!DOCTYPE svg PUBLIC "-//W3C//DTD SVG 1.0//EN" "http://www.w3.org/TR/2001/REC-SVG-20010904/DTD/svg10.dtd" [
	<!ENTITY ns_flows "http://ns.adobe.com/Flows/1.0/">
]>
<svg version="1.0"
	 xmlns="http://www.w3.org/2000/svg" xmlns:xlink="http://www.w3.org/1999/xlink" xmlns:a="http://ns.adobe.com/AdobeSVGViewerExtensions/3.0/"
	 x="0px" y="0px" width="250px" height="250px" viewBox="0 -23.411 250 250" enable-background="new 0 -23.411 250 250"
	 xml:space="preserve">
<defs>
</defs>
<circle fill="#FFFFFF" cx="124.949" cy="87.932" r="23.288"/>
<path id="path3611_1_" fill="#FFFFFF" d="M78.623,203.178c94.347,0,145.937-78.161,145.937-145.937c0-2.22-0.045-4.431-0.146-6.63
	C234.43,43.37,243.135,34.335,250,24.05c-9.19,4.085-19.081,6.835-29.456,8.076c10.591-6.35,18.721-16.395,22.557-28.37
	c-9.91,5.875-20.886,10.145-32.571,12.449C201.169,6.235,187.844,0,173.089,0c-28.325,0-51.295,22.971-51.295,51.286
	c0,4.025,0.45,7.939,1.33,11.695c-42.63-2.145-80.431-22.555-105.726-53.59c-4.405,7.58-6.945,16.385-6.945,25.78
	c0,17.795,9.055,33.505,22.825,42.696c-8.415-0.26-16.32-2.57-23.23-6.416c-0.007,0.215-0.007,0.425-0.007,0.655
	c0,24.84,17.68,45.581,41.15,50.281c-4.31,1.175-8.845,1.805-13.525,1.805c-3.3,0-6.515-0.325-9.64-0.925
	c6.53,20.38,25.465,35.21,47.916,35.625c-17.555,13.76-39.67,21.955-63.706,21.955c-4.135,0-8.22-0.235-12.235-0.709
	c22.7,14.55,49.656,23.04,78.625,23.04"/>
</svg>
